<svg version="1.1" id="Layer_1" xmlns="http://www.w3.org/2000/svg" xmlns:xlink="http://www.w3.org/1999/xlink" x="0px" y="0px"
	 width="100%" viewBox="0 0 500 388" enable-background="new 0 0 500 388" xml:space="preserve">
<path fill="#132240" opacity="1.000000" stroke="none" 
	d="
M316.000000,389.000000 
	C212.029114,389.000000 108.558220,388.982361 5.087433,389.081970 
	C1.855116,389.085083 0.891074,388.693146 0.894656,385.089508 
	C1.020698,258.291992 1.015560,131.494293 0.912478,4.696723 
	C0.909834,1.444314 1.806059,0.930568 4.801270,0.931968 
	C168.921722,1.008671 333.042206,1.007556 497.162659,0.938992 
	C500.071960,0.937776 501.096405,1.318858 501.093506,4.660652 
	C500.982971,131.624817 500.984161,258.589111 501.092529,385.553284 
	C501.095215,388.682587 500.283508,389.074615 497.448456,389.070251 
	C437.132416,388.977570 376.816193,389.000000 316.000000,389.000000 
z"/>
<path fill="#D9DADE" opacity="1.000000" stroke="none" 
	d="
M268.289978,352.106842 
	C204.515701,356.184448 153.008514,333.599884 117.774391,280.617340 
	C84.222626,230.164597 82.466217,176.084335 111.778847,123.085297 
	C139.198929,73.508141 183.136856,46.134300 239.476868,42.112270 
	C307.375824,37.265072 360.153961,64.744774 394.803711,123.703842 
	C426.590210,177.790939 418.101868,250.219376 376.001617,297.419739 
	C347.345764,329.547089 311.533447,347.666321 268.289978,352.106842 
z"/>
<path fill="#202D46" opacity="1.000000" stroke="none" 
	d="
M115.736069,272.209503 
	C93.168793,232.008804 88.880280,190.194168 104.095695,147.126526 
	C118.515938,106.309631 146.391388,76.977310 185.639252,59.016964 
	C226.865707,40.151207 269.186462,38.904259 311.446747,55.175503 
	C389.146118,85.091682 430.910248,169.262360 401.194092,248.602844 
	C381.730347,300.570068 343.291443,333.347107 289.307617,345.297882 
	C227.270355,359.031464 174.152817,341.311096 131.293427,294.046722 
	C125.351883,287.494537 120.423500,280.144165 115.736069,272.209503 
z"/>
<path fill="#D5A857" opacity="1.000000" stroke="none" 
	d="
M178.698669,68.672623 
	C250.684372,29.944117 338.807343,52.434376 382.806885,120.496201 
	C416.215424,172.175049 411.161987,242.698761 370.658081,290.040466 
	C309.259735,361.803955 198.483505,362.359955 136.371643,291.216400 
	C80.922752,227.704712 92.376068,129.811493 161.101929,79.837227 
	C166.631622,75.816292 172.320770,72.047028 178.698669,68.672623 
z"/>
<path fill="#192742" opacity="1.000000" stroke="none" 
	d="
M112.615440,240.361221 
	C93.179161,181.993195 115.024651,117.698311 166.338409,81.441513 
	C226.328171,39.054493 310.344635,46.341728 360.543518,99.619255 
	C400.179016,141.685562 409.868683,191.049591 391.572021,245.931442 
	C390.222809,249.978638 388.590973,250.088089 385.160858,248.494537 
	C375.044037,243.794449 364.755188,239.465851 354.608490,234.828110 
	C351.658966,233.479965 350.179657,233.565552 348.563629,236.940002 
	C330.257690,275.164642 299.294159,295.863464 257.497467,297.598511 
	C214.386642,299.388092 181.400940,280.302124 159.950317,242.413513 
	C154.800842,233.317917 155.015549,233.243454 145.518677,237.519882 
	C137.470932,241.143784 129.254120,244.417587 121.354156,248.334442 
	C116.983284,250.501556 115.068375,249.427002 114.135078,245.009720 
	C113.826981,243.551483 113.228989,242.154480 112.615440,240.361221 
z"/>
<path fill="#F0EEE9" opacity="1.000000" stroke="none" 
	d="
M138.719269,259.058167 
	C138.076141,255.897461 135.558426,252.208145 138.528275,250.517715 
	C141.362869,248.904236 144.217911,252.145599 146.568649,254.155441 
	C150.008301,257.096283 151.774139,260.926208 152.047256,265.459320 
	C152.246063,268.759186 150.951508,269.826355 147.928986,268.267456 
	C144.013153,266.247833 140.742065,263.535919 138.719269,259.058167 
z"/>
<path fill="#F0EDE8" opacity="1.000000" stroke="none" 
	d="
M205.432419,300.525818 
	C205.417557,298.138794 203.270050,295.418457 205.374039,294.331940 
	C207.463028,293.253174 209.564346,295.701630 211.296555,297.130981 
	C215.243286,300.387665 217.865967,304.561615 218.686096,309.662262 
	C218.929504,311.176056 219.690689,313.219055 218.014145,314.218262 
	C216.691559,315.006470 215.178909,313.845703 213.894073,313.146515 
	C209.030228,310.499756 206.478317,306.249329 205.432419,300.525818 
z"/>
<path fill="#F0EDE8" opacity="1.000000" stroke="none" 
	d="
M288.698547,304.930542 
	C290.944916,300.515350 293.810944,297.170868 297.849792,294.924744 
	C298.850189,294.368439 299.963593,293.512238 301.045685,294.307953 
	C301.980164,294.995117 301.254211,296.153351 301.131683,297.094299 
	C300.296875,303.506714 298.639648,309.486389 292.442383,312.951019 
	C291.023193,313.744415 289.377197,315.096344 287.897491,314.170105 
	C286.341217,313.195892 287.124878,311.122986 287.320404,309.558380 
	C287.502197,308.103729 288.115234,306.702942 288.698547,304.930542 
z"/>
<path fill="#F0EEEA" opacity="1.000000" stroke="none" 
	d="
M362.144775,251.985779 
	C364.206024,251.028000 365.994781,249.013611 367.848358,250.536011 
	C369.600983,251.975464 368.393738,254.303604 368.030365,256.190765 
	C366.901398,262.054535 363.048126,265.745758 357.931793,268.311005 
	C355.301147,269.629974 353.893829,268.997833 353.931152,265.788605 
	C354.001587,259.725983 357.204071,255.555847 362.144775,251.985779 
z"/>
<path fill="#F0EEEA" opacity="1.000000" stroke="none" 
	d="
M231.383728,315.745270 
	C226.244431,311.818542 224.306152,306.448822 222.437088,300.851196 
	C231.013168,301.701263 237.893692,307.333801 240.225815,315.231567 
	C240.536377,316.283234 241.464523,317.435394 240.355301,318.421570 
	C239.370255,319.297363 238.121674,318.793518 237.071548,318.376984 
	C235.242249,317.651398 233.472168,316.776489 231.383728,315.745270 
z"/>
<path fill="#F0EDE8" opacity="1.000000" stroke="none" 
	d="
M324.172913,285.822693 
	C324.017883,280.742126 325.552246,276.630341 328.375061,272.990540 
	C329.076996,272.085449 329.744110,270.377563 331.218597,272.558228 
	C334.640503,277.618805 334.827515,287.109344 331.380035,291.926483 
	C330.528748,293.115936 329.698700,294.766846 328.128357,294.703461 
	C326.119446,294.622406 325.900818,292.486755 325.335358,291.038300 
	C324.742554,289.519653 324.548553,287.845398 324.172913,285.822693 
z"/>
<path fill="#F0EEEA" opacity="1.000000" stroke="none" 
	d="
M274.613831,315.738464 
	C271.629486,317.521820 267.835327,320.293152 265.930023,318.175842 
	C263.851318,315.865906 266.751373,312.102997 268.553131,309.472229 
	C271.981171,304.466827 277.036530,301.815948 283.644714,300.277588 
	C281.802917,306.394287 279.695892,311.672119 274.613831,315.738464 
z"/>
<path fill="#F0EEE9" opacity="1.000000" stroke="none" 
	d="
M285.621460,334.230072 
	C277.735504,334.033539 271.799805,330.890991 267.302734,324.950806 
	C265.218201,322.197357 266.273651,321.274292 269.320557,321.083649 
	C275.613800,320.689819 284.934448,326.050629 288.022217,331.876099 
	C289.440552,334.551971 287.424622,334.063904 285.621460,334.230072 
z"/>
<path fill="#F0EEE9" opacity="1.000000" stroke="none" 
	d="
M179.628235,293.376709 
	C176.966751,296.525574 175.919373,293.551300 174.980545,292.324341 
	C169.582520,285.269836 172.548599,278.393829 175.424988,271.305176 
	C182.096970,277.046600 183.385498,283.824615 179.628235,293.376709 
z"/>
<path fill="#F0EEE9" opacity="1.000000" stroke="none" 
	d="
M228.211929,322.981232 
	C232.135605,321.450867 237.563065,319.129608 239.060349,322.178436 
	C240.829453,325.780731 235.655319,328.529266 232.424576,330.706665 
	C228.898590,333.083038 224.966660,334.383423 220.658966,334.203644 
	C219.590866,334.159088 218.096619,334.797913 217.588303,333.394470 
	C217.134277,332.140930 218.390640,331.308044 219.150803,330.501892 
	C221.772552,327.721466 224.305862,324.816956 228.211929,322.981232 
z"/>
<path fill="#F0EEE9" opacity="1.000000" stroke="none" 
	d="
M315.147827,284.813721 
	C316.405060,284.143036 317.340027,283.757446 317.880951,285.120026 
	C320.198120,290.957550 317.183960,301.201904 312.269043,304.729767 
	C309.348694,306.825928 307.682007,306.263000 307.345978,302.700104 
	C306.666840,295.498810 309.600464,289.763397 315.147827,284.813721 
z"/>
<path fill="#F0EEE9" opacity="1.000000" stroke="none" 
	d="
M198.539978,297.670410 
	C198.830856,300.841522 199.715317,304.755341 196.964142,305.672485 
	C194.091949,306.629974 191.881378,303.313385 190.170029,300.815369 
	C186.986526,296.168549 187.782532,290.910248 188.053543,285.803711 
	C188.196747,283.105591 189.980026,284.129333 191.172897,285.078125 
	C195.115433,288.214020 197.275284,292.459045 198.539978,297.670410 
z"/>
<path fill="#F0EEE9" opacity="1.000000" stroke="none" 
	d="
M144.749115,273.868011 
	C150.356888,274.017120 154.445312,276.257477 157.674927,280.186951 
	C158.963058,281.754272 158.892548,282.694794 156.604034,283.139893 
	C148.478943,284.720001 141.547348,282.353363 135.501831,276.967255 
	C134.936081,276.463196 134.283234,275.538086 134.379395,274.918427 
	C134.576370,273.649170 135.891617,273.901672 136.823151,273.878937 
	C139.312180,273.818146 141.803482,273.850525 144.749115,273.868011 
z"/>
<path fill="#F0EEE9" opacity="1.000000" stroke="none" 
	d="
M357.279602,283.341522 
	C353.619659,283.847382 348.600006,284.606812 347.974640,281.901947 
	C347.268829,278.849304 351.709320,276.547760 354.932709,275.141296 
	C359.519989,273.139709 364.426788,273.916046 369.224487,273.892456 
	C369.984314,273.888733 371.066467,274.052429 371.440399,274.554871 
	C372.220978,275.603790 371.115936,276.358704 370.459778,277.019165 
	C366.929474,280.572540 362.533508,282.391296 357.279602,283.341522 
z"/>
<path fill="#F1EEEA" opacity="1.000000" stroke="none" 
	d="
M291.209473,316.619171 
	C299.926361,314.325684 306.405151,318.148834 312.509735,323.094055 
	C314.091644,324.375549 314.370148,325.634796 311.870605,325.944336 
	C304.164551,326.898590 296.912415,325.958618 291.003448,320.297852 
	C289.977020,319.314545 287.721130,318.068146 291.209473,316.619171 
z"/>
<path fill="#F1EEEA" opacity="1.000000" stroke="none" 
	d="
M197.284943,320.231873 
	C202.636749,316.729095 208.005829,314.875824 214.101883,316.374908 
	C216.776138,317.032532 217.438248,318.113281 215.119339,320.268951 
	C209.120728,325.845276 201.940735,326.874359 194.223160,325.970825 
	C191.928146,325.702148 191.695694,324.622772 193.416626,323.161285 
	C194.553680,322.195618 195.786865,321.343170 197.284943,320.231873 
z"/>
<path fill="#F0EEEA" opacity="1.000000" stroke="none" 
	d="
M337.900635,268.692566 
	C337.794586,264.264099 337.405975,258.321289 341.026855,257.753937 
	C344.418213,257.222534 345.599304,263.318939 347.048126,266.885925 
	C348.654144,270.839844 348.054413,274.707214 345.863556,278.347961 
	C344.692444,280.294067 343.399231,280.431427 342.030640,278.601929 
	C339.915588,275.774567 338.254547,272.735901 337.900635,268.692566 
z"/>
<path fill="#F0EEEA" opacity="1.000000" stroke="none" 
	d="
M166.832642,259.558899 
	C169.142685,265.963348 168.572983,271.701111 165.030884,277.072418 
	C164.238800,278.273499 163.625015,280.059357 161.839722,279.795654 
	C160.180984,279.550720 159.782700,277.770294 159.189011,276.438782 
	C156.981415,271.487549 159.371750,261.587280 163.512131,257.883453 
	C165.638504,255.981308 165.873276,258.154785 166.832642,259.558899 
z"/>
<path fill="#F0EEE9" opacity="1.000000" stroke="none" 
	d="
M317.625549,313.713562 
	C315.106506,312.445435 311.238678,311.714417 311.658081,309.497681 
	C312.158600,306.852478 315.931702,306.311035 318.732971,306.048615 
	C325.493469,305.415466 331.133148,308.458710 337.694092,311.859985 
	C330.794647,315.842102 324.486450,315.671997 317.625549,313.713562 
z"/>
<path fill="#F0EEE9" opacity="1.000000" stroke="none" 
	d="
M191.185104,312.445129 
	C183.677780,316.029144 176.530853,315.847778 169.194458,312.686432 
	C173.692749,307.307983 184.776382,304.481384 190.994827,306.969635 
	C192.344711,307.509766 194.320740,307.806305 194.504654,309.363892 
	C194.698746,311.007446 192.733261,311.484528 191.185104,312.445129 
z"/>
<path fill="#F1EEEB" opacity="1.000000" stroke="none" 
	d="
M162.840073,291.796082 
	C167.106522,291.766510 170.446304,293.095306 173.437927,295.379669 
	C175.180939,296.710632 175.440659,297.786865 173.123657,298.956512 
	C166.781708,302.158020 154.703217,299.963135 149.397842,294.342590 
	C153.561005,292.269836 157.933136,291.837158 162.840073,291.796082 
z"/>
<path fill="#F1EEEB" opacity="1.000000" stroke="none" 
	d="
M353.816925,297.084534 
	C347.394409,300.741333 340.899323,300.844910 334.272644,299.381897 
	C333.085999,299.119934 331.411530,298.941467 331.243256,297.327667 
	C331.108459,296.034729 332.423981,295.442322 333.366547,294.809662 
	C340.439880,290.061859 348.004669,291.267487 355.250793,293.799225 
	C358.232697,294.841034 354.782440,295.896667 353.816925,297.084534 
z"/>
<path fill="#F1EEEA" opacity="1.000000" stroke="none" 
	d="
M247.967392,326.153168 
	C245.081833,322.576019 245.862167,319.674103 249.005783,317.382050 
	C252.087433,315.135193 255.171707,315.445129 257.925049,318.173920 
	C260.297150,320.524902 260.612427,323.168243 258.399536,325.648956 
	C255.372375,329.042480 251.846664,328.987549 247.967392,326.153168 
z"/>
<path fill="#D2A658" opacity="1.000000" stroke="none" 
	d="
M270.400452,290.461792 
	C227.558945,296.239349 192.970291,282.619354 169.556107,246.483536 
	C142.329971,204.464645 153.696411,150.243530 194.267395,120.833191 
	C241.252350,86.773300 307.746429,99.975685 337.851868,149.341797 
	C363.337982,191.133255 350.889404,246.679626 309.821350,274.471741 
	C297.936005,282.514893 285.053680,288.087646 270.400452,290.461792 
z"/>
<path fill="#F5F6F7" opacity="1.000000" stroke="none" 
	d="
M265.190674,89.440796 
	C262.479797,92.607216 259.539581,90.690544 257.111786,89.855263 
	C254.898758,89.093864 256.597229,86.642914 256.827667,85.010811 
	C257.430573,80.740746 258.452759,76.526436 258.971375,72.249100 
	C259.335602,69.245224 260.518311,68.470459 263.518463,68.861198 
	C271.965057,69.961281 271.984039,69.825745 272.791473,78.480553 
	C272.898987,79.633179 272.984741,80.787827 273.879456,82.311256 
	C275.027374,79.904198 276.360565,77.565086 277.274750,75.072304 
	C278.338104,72.172829 280.116180,71.577438 283.016693,72.055550 
	C291.414673,73.439842 291.430756,73.341171 289.827972,81.736359 
	C289.236786,84.832901 288.481812,87.909691 288.103790,91.032082 
	C287.749847,93.955727 287.044067,95.672935 283.474792,94.780327 
	C280.637726,94.070824 277.690948,94.053246 279.040009,89.779724 
	C279.304596,88.941605 279.732483,87.921288 278.768463,86.795021 
	C276.093903,88.651115 276.722321,94.525322 270.891968,92.830292 
	C265.705841,91.322540 269.277313,86.645836 266.553314,84.029541 
	C266.090698,85.836342 265.682343,87.431084 265.190674,89.440796 
z"/>
<path fill="#F4F4F6" opacity="1.000000" stroke="none" 
	d="
M340.800964,113.160248 
	C342.019745,112.432632 342.964081,111.788261 343.779480,111.008926 
	C347.249329,107.692642 350.380341,108.304657 352.915253,112.570938 
	C354.003723,114.402809 352.547668,114.964478 351.753601,115.786484 
	C348.414551,119.242966 345.052399,122.683609 341.552673,125.974747 
	C340.360199,127.096123 339.263306,129.973541 337.469727,128.540451 
	C335.113770,126.658005 331.432465,125.309326 331.910065,121.067871 
	C332.222565,118.292953 333.600281,115.640907 332.829681,112.452629 
	C329.760803,113.394226 328.839905,117.113960 325.432312,117.827179 
	C324.270935,117.764366 323.710876,117.332664 323.220215,116.306503 
	C319.390564,113.089233 320.342743,110.750488 323.590942,108.069771 
	C326.644318,105.549866 329.145355,102.370918 332.098755,99.714661 
	C333.282623,98.649879 334.360962,95.751137 336.258942,97.355392 
	C338.555603,99.296631 342.514679,100.477112 341.654572,104.853371 
	C341.207214,107.129456 340.832031,109.419716 340.446594,112.108063 
	C340.468323,112.735512 340.467773,112.958466 340.800964,113.160248 
z"/>
<path fill="#F4F4F6" opacity="1.000000" stroke="none" 
	d="
M132.315613,194.097748 
	C131.812088,193.610062 131.540848,193.425766 131.248627,193.285065 
	C127.903999,191.674805 121.340691,194.931595 121.190834,189.150665 
	C120.840240,175.625992 124.528770,170.560226 133.651062,169.123627 
	C134.413437,168.607788 134.882568,168.483078 135.670929,168.893814 
	C143.679260,172.498230 145.864777,176.101837 144.577148,184.517105 
	C144.063797,187.872086 144.543808,191.468964 142.306000,194.777618 
	C141.617386,195.348190 141.185303,195.607056 140.317291,195.819000 
	C138.439514,195.588196 136.933243,195.398483 135.019196,195.402161 
	C133.833664,195.279037 133.130249,194.972321 132.315613,194.097748 
z"/>
<path fill="#F5F5F7" opacity="1.000000" stroke="none" 
	d="
M363.263397,189.232056 
	C362.490753,186.886780 361.443695,184.964310 360.936493,182.908646 
	C359.289520,176.233948 361.181458,171.069336 365.918060,168.673492 
	C371.463470,165.868546 377.508209,166.701126 380.970337,170.746689 
	C384.828064,175.254501 385.414368,183.347870 382.157379,187.937897 
	C381.592438,188.734024 380.778107,189.353195 379.894684,190.344391 
	C379.690582,190.857269 379.670776,191.079865 379.436951,191.561737 
	C377.547516,193.080521 375.476776,193.202179 373.233337,193.863068 
	C372.442200,193.997604 371.982758,194.017212 371.174103,193.966248 
	C369.048798,193.378387 367.154236,193.197754 365.183289,192.087463 
	C364.070557,191.318939 363.491760,190.570465 363.263397,189.232056 
z"/>
<path fill="#F5F6F7" opacity="1.000000" stroke="none" 
	d="
M297.358582,99.150558 
	C295.160767,92.091171 296.874359,86.114098 301.922211,83.006096 
	C306.559387,80.150948 313.986816,81.570869 318.864838,86.245010 
	C323.240875,90.438187 323.494934,94.715302 319.624786,101.432899 
	C319.825714,102.849220 319.305206,103.649292 318.389771,104.652451 
	C316.692749,105.856377 315.036621,106.274208 313.110413,106.990814 
	C311.785370,107.319359 310.802032,107.312813 309.448578,107.172295 
	C306.515625,106.344887 303.866394,105.797600 301.206970,104.207382 
	C299.279419,102.856873 297.735260,101.630234 297.358582,99.150558 
z"/>
<path fill="#F5F5F7" opacity="1.000000" stroke="none" 
	d="
M170.196869,128.617035 
	C168.912979,128.613907 167.941483,128.510742 166.975876,128.367844 
	C165.738937,128.184784 164.202652,127.249641 163.428040,128.729431 
	C162.723190,130.075912 164.375916,130.609756 165.177582,131.294312 
	C166.491394,132.416229 165.765671,133.247726 165.002075,134.179688 
	C163.960037,135.451431 162.952728,136.751648 161.703308,138.671173 
	C160.618851,139.799683 159.748245,139.623306 158.565369,139.235031 
	C158.060013,139.013916 157.865097,138.912170 157.396545,138.630920 
	C156.281586,137.804550 155.581818,136.982697 154.367584,136.304047 
	C153.910385,136.043045 153.733810,135.928024 153.306610,135.621185 
	C151.979523,134.447754 150.998901,133.367752 149.726624,132.140823 
	C149.444168,131.708420 149.362076,131.516647 149.262741,131.012421 
	C143.112854,125.140274 143.099014,125.128372 148.670990,118.645485 
	C150.173782,116.896996 151.604294,115.013115 153.388428,113.594299 
	C157.663986,110.194160 163.239777,111.231857 166.310043,115.765816 
	C169.785431,120.898018 169.785416,120.898026 174.520844,122.522644 
	C173.260315,124.117188 172.047287,125.651634 170.748322,127.514969 
	C170.612213,128.062347 170.562042,128.280853 170.196869,128.617035 
z"/>
<path fill="#F4F4F6" opacity="1.000000" stroke="none" 
	d="
M223.187012,75.249718 
	C225.203705,69.656166 230.262970,71.609756 234.368988,70.443100 
	C232.944305,73.499153 231.702957,76.659943 230.036118,79.577637 
	C228.734863,81.855362 229.254944,83.022743 231.341553,84.333115 
	C234.262024,86.167160 236.971954,88.336464 239.797089,90.380516 
	C232.852020,95.227295 227.438812,92.181732 222.650040,87.520531 
	C221.201843,88.275085 221.761917,89.127716 221.899750,89.809464 
	C222.936005,94.934845 221.083008,97.023979 215.836227,96.958000 
	C213.792313,96.932312 213.888458,95.507805 213.580688,94.333344 
	C212.277664,89.360718 211.114136,84.350723 209.755630,79.393852 
	C209.199280,77.363861 208.258194,75.210915 211.543564,75.178726 
	C213.949493,75.155144 217.400589,71.417587 218.628403,76.838158 
	C218.904572,78.057365 218.742050,79.527054 220.477051,80.748756 
	C221.360001,78.972939 222.196045,77.291443 223.187012,75.249718 
z"/>
<path fill="#F4F5F6" opacity="1.000000" stroke="none" 
	d="
M371.632538,198.957062 
	C375.158142,199.800919 378.413055,200.636703 381.688690,200.727875 
	C385.030701,200.820908 385.530548,202.259949 385.021210,205.094421 
	C384.492371,208.037384 384.391479,211.056000 383.892212,214.005783 
	C382.516235,222.135651 375.173035,224.995575 368.638611,219.917816 
	C367.426971,218.976288 366.663116,217.997192 364.809998,218.683228 
	C363.501801,219.167572 361.076691,221.232178 360.658264,219.099350 
	C360.192230,216.723816 359.679138,213.344711 362.572662,211.432129 
	C363.374146,210.902374 364.539948,210.926071 365.346008,210.400482 
	C366.427979,209.695007 367.276337,208.308975 365.220734,208.091125 
	C359.396912,207.473953 362.278412,203.443604 362.553925,200.969559 
	C362.983795,197.109467 366.226990,199.736237 368.580963,199.112305 
	C369.712372,198.385590 370.504547,198.278885 371.632538,198.957062 
z"/>
<path fill="#F3F4F5" opacity="1.000000" stroke="none" 
	d="
M141.345337,221.245483 
	C136.146973,220.686081 131.431213,221.942780 126.662804,222.523361 
	C124.191925,222.824203 123.044823,222.705948 122.830177,219.835770 
	C122.483116,215.194916 121.688141,210.587753 121.089958,205.965378 
	C120.896431,204.469986 120.513718,202.762131 122.787727,202.639511 
	C124.616234,202.540924 127.203423,200.443512 127.904266,204.627808 
	C128.453873,204.902771 128.216721,206.377701 129.058090,205.244385 
	C129.083176,201.176193 132.295761,202.830612 134.476700,202.069336 
	C136.506393,203.115356 135.689209,205.071213 136.538132,206.432083 
	C135.917618,205.166901 135.875778,203.859741 136.523056,202.225494 
	C136.866196,201.572250 137.052872,201.215363 137.381073,200.588104 
	C138.152969,199.079208 139.179245,199.114471 140.639954,199.679504 
	C142.356812,200.063446 143.544556,200.387421 143.744843,202.103897 
	C144.357620,207.355270 144.978516,212.606583 145.693405,217.844681 
	C145.942993,219.673386 145.011856,220.182373 143.208466,220.534760 
	C142.663330,221.272842 142.251953,221.504898 141.345337,221.245483 
z"/>
<path fill="#F4F5F6" opacity="1.000000" stroke="none" 
	d="
M142.275299,164.089966 
	C138.087097,162.283737 134.148102,160.586655 130.073837,159.327148 
	C126.932991,158.356186 126.681480,156.791412 128.179718,154.280807 
	C129.386322,152.258911 129.413849,148.689194 133.488480,150.932251 
	C135.928299,152.275360 138.649994,153.106415 141.620239,154.120682 
	C142.275833,153.747467 142.575958,153.440414 143.147247,152.940979 
	C144.477707,152.168854 144.958252,151.247192 145.108749,149.414032 
	C142.599075,146.282898 139.144241,145.451675 135.927689,144.282684 
	C132.920761,143.189880 133.568420,141.476746 134.750153,139.719742 
	C135.884262,138.033600 135.301941,133.976364 139.442993,135.939316 
	C140.939407,136.648666 142.465378,137.297165 143.988693,137.948044 
	C155.578186,142.899933 157.375488,148.421494 150.782562,159.501007 
	C150.784134,160.325745 150.720276,160.781967 150.301331,161.504822 
	C148.419022,163.119598 146.637543,164.234055 144.162643,164.738098 
	C143.333115,164.749802 142.883606,164.623413 142.275299,164.089966 
z"/>
<path fill="#F1F2F3" opacity="1.000000" stroke="none" 
	d="
M196.712677,90.716713 
	C200.089493,90.309158 203.239532,89.451294 205.668762,92.324509 
	C207.768112,94.807579 207.324142,97.449036 205.756775,100.446327 
	C205.892349,102.517174 204.809433,103.527122 203.442139,104.760551 
	C199.740341,106.689819 196.448120,108.664436 192.374390,109.767601 
	C191.522064,109.814156 191.053162,109.704346 190.311676,109.281616 
	C186.314041,108.967728 187.386215,106.022949 186.988708,103.967064 
	C186.526672,101.577492 188.560684,101.907555 189.810928,101.481285 
	C192.254639,100.648079 194.946091,100.415710 196.900940,98.089012 
	C193.118851,98.063957 189.590271,99.950157 185.420563,99.762634 
	C184.884171,100.025589 184.748550,100.197433 184.569443,100.043808 
	C179.498169,95.555374 179.433258,91.650566 184.342880,87.510895 
	C187.066620,85.214294 190.255310,83.782959 193.684174,83.027008 
	C195.189285,82.695175 197.262527,81.150208 198.256912,82.782463 
	C199.275696,84.454773 199.613098,86.883118 197.339294,88.835075 
	C195.743973,90.426788 193.982544,90.853661 192.270355,91.373856 
	C193.645844,91.107132 194.910629,90.288490 196.712677,90.716713 
z"/>
<path fill="#F3F4F5" opacity="1.000000" stroke="none" 
	d="
M375.336517,159.145966 
	C372.507874,159.651779 371.702759,157.864471 371.224091,156.097290 
	C370.354126,152.885468 368.638428,152.914520 366.129547,154.253571 
	C364.236328,155.264023 361.992981,155.680893 360.220154,156.842300 
	C355.755829,159.766937 354.019745,157.711075 352.542755,153.509109 
	C351.694611,151.096146 352.223572,150.242783 354.376831,149.523163 
	C356.258728,148.894226 358.036774,147.961716 359.890503,147.239777 
	C363.493011,145.836746 367.659973,144.858704 363.857941,139.539444 
	C362.563263,137.728088 364.560852,137.324966 365.647308,136.913086 
	C367.012482,136.395538 368.911163,134.411255 369.876617,136.763992 
	C372.657135,143.539703 376.924561,149.721054 378.029175,157.409424 
	C377.484406,158.693451 376.766510,159.262848 375.336517,159.145966 
z"/>
<path fill="#F2F3F5" opacity="1.000000" stroke="none" 
	d="
M166.257767,106.182892 
	C162.844223,102.662003 165.635681,101.239113 167.846100,99.090660 
	C170.614426,96.399918 171.984192,98.000351 173.714737,100.026299 
	C176.850708,103.697624 180.099167,107.272873 183.235168,110.944183 
	C184.218185,112.095001 186.108871,113.223740 183.825623,115.306931 
	C183.723099,115.802216 183.784195,116.001572 183.727524,116.493721 
	C182.937805,117.637207 182.103806,118.282242 180.492188,118.802429 
	C177.508804,119.354698 177.005692,117.112846 175.390076,115.932358 
	C173.502975,115.938461 172.601501,114.857018 171.414612,113.639511 
	C170.179153,111.383545 168.490128,109.943352 166.797211,108.068008 
	C166.377762,107.395782 166.245300,106.967354 166.257767,106.182892 
z"/>
<path fill="#F4F4F6" opacity="1.000000" stroke="none" 
	d="
M347.085938,129.214172 
	C350.416260,127.457779 353.730408,125.879738 356.505402,123.635162 
	C360.567993,120.349136 361.200684,124.238808 363.000763,126.169075 
	C365.685089,129.047592 363.297913,130.008301 361.312103,131.215530 
	C360.892548,131.470581 360.518097,131.799835 359.904846,132.712006 
	C359.445435,133.941986 359.015411,134.415756 358.324524,135.085938 
	C357.931274,135.436890 357.766907,135.567795 357.344513,135.875839 
	C356.558105,136.366287 355.995270,136.622116 355.271667,137.194824 
	C354.872772,137.507248 354.707550,137.624603 354.284851,137.902802 
	C353.498810,138.356430 352.930054,138.561188 352.092407,138.876328 
	C351.605560,138.918411 351.409363,138.897644 350.937195,138.770020 
	C347.835571,140.466293 345.086700,141.750961 342.809387,137.598236 
	C342.271545,137.804382 342.073792,137.963776 342.114838,137.826294 
	C342.414032,135.552277 340.490967,133.038239 344.083496,131.658188 
	C344.244476,131.178452 344.183868,130.997696 344.245911,130.556641 
	C344.734711,129.837173 345.194214,129.496979 345.989777,129.152191 
	C346.450928,129.075684 346.639832,129.085083 347.085938,129.214172 
z"/>
<path fill="#071127" opacity="1.000000" stroke="none" 
	d="
M308.728638,105.892654 
	C310.088745,105.801506 311.125793,105.750145 312.548340,105.761841 
	C314.818359,106.266174 316.318146,105.566002 317.728058,103.946121 
	C318.254486,103.112083 318.662750,102.580551 319.287109,101.914459 
	C321.722595,102.514748 322.459106,100.018776 324.620941,99.425095 
	C323.655579,104.944984 321.107391,108.851212 316.087372,110.828316 
	C309.747009,113.325439 304.285797,110.881691 299.599091,106.912544 
	C297.533051,105.162842 293.328705,103.272514 297.088287,98.961327 
	C298.546753,99.884109 299.694855,100.983719 301.011139,102.331253 
	C302.914795,105.147812 305.389069,106.124413 308.728638,105.892654 
z"/>
<path fill="#061126" opacity="1.000000" stroke="none" 
	d="
M273.181458,98.968170 
	C267.368378,97.964066 262.001465,96.951241 256.617645,96.037949 
	C255.138535,95.787033 253.896790,95.383736 254.202316,93.629715 
	C254.513916,91.840828 256.072205,91.882652 257.375946,92.107933 
	C267.480682,93.854012 277.519897,95.997749 287.738190,97.044884 
	C289.089874,97.183403 290.113190,97.748657 289.615204,99.242905 
	C289.029480,101.000435 287.406494,101.141273 285.873596,100.921616 
	C281.781586,100.335213 277.704346,99.645584 273.181458,98.968170 
z"/>
<path fill="#061127" opacity="1.000000" stroke="none" 
	d="
M149.720230,160.970459 
	C149.867279,160.355469 150.005890,160.118622 150.475525,159.902100 
	C152.399277,159.981339 155.289001,158.826202 152.985397,162.643433 
	C149.421707,168.548676 145.037949,170.506516 138.715958,168.431183 
	C137.879425,168.156555 137.112335,168.106018 136.144592,168.901855 
	C135.489914,169.198166 135.055435,169.214386 134.315491,169.105194 
	C132.468033,165.877670 128.882370,166.645767 126.532043,165.047058 
	C125.414383,164.286804 123.035126,164.442123 123.675743,162.452286 
	C124.264954,160.622177 126.225464,159.878387 128.197098,160.608017 
	C130.819916,161.578644 133.320801,162.893234 135.968552,163.776901 
	C137.752136,164.372177 139.581543,165.705322 141.849304,164.081604 
	C142.481400,163.692932 142.878494,163.593384 143.577591,163.562378 
	C146.483231,164.544830 148.052765,162.953125 149.720230,160.970459 
z"/>
<path fill="#061126" opacity="1.000000" stroke="none" 
	d="
M386.750092,220.313843 
	C383.675110,229.240372 376.971191,231.959213 369.124146,227.323914 
	C366.483215,225.763870 364.503387,226.192703 362.193024,227.382065 
	C361.286926,227.848511 360.219238,228.208755 359.488647,227.220932 
	C358.782318,226.265900 359.435974,225.363312 359.996338,224.508255 
	C361.965149,221.504044 364.417175,219.900574 367.928253,221.993729 
	C374.074982,225.658127 379.718597,225.975845 384.644867,219.899994 
	C385.203979,219.210373 386.217285,217.641876 386.750092,220.313843 
z"/>
<path fill="#061126" opacity="1.000000" stroke="none" 
	d="
M140.912964,221.416382 
	C141.428894,220.905624 141.843964,220.767029 142.584991,220.689484 
	C143.920761,222.580093 147.353348,223.064560 146.618225,225.537735 
	C145.839371,228.158020 142.636795,227.377289 140.586807,227.752991 
	C134.933502,228.789124 129.172974,229.247787 123.449783,229.889450 
	C122.136848,230.036652 120.604797,230.193710 120.217583,228.451157 
	C119.800774,226.575394 121.160538,225.590683 122.666985,225.315689 
	C127.519829,224.429871 132.407379,223.730682 137.288071,223.003372 
	C138.552353,222.814987 140.001892,223.260284 140.912964,221.416382 
z"/>
<path fill="#061126" opacity="1.000000" stroke="none" 
	d="
M161.759140,138.700378 
	C164.146927,139.481094 165.112320,136.329544 168.477509,136.287674 
	C165.787338,139.644440 163.765274,142.290024 161.605423,144.817902 
	C160.252029,146.401901 159.072525,145.383850 157.807953,144.394089 
	C152.879990,140.537109 147.879486,136.772888 142.913895,132.963821 
	C141.790344,132.101974 139.779312,131.340439 140.764038,129.674377 
	C141.567108,128.315628 143.489655,128.845032 144.831497,129.565247 
	C145.995026,130.189758 147.019623,131.074142 148.855148,130.785110 
	C149.245483,130.699982 149.226730,130.712814 149.240845,130.711533 
	C150.180878,132.611176 151.725571,133.821060 153.964935,134.648468 
	C154.299194,134.668488 154.010559,135.002625 154.157013,134.836639 
	C154.799210,136.329025 156.207779,136.968628 157.922836,137.692535 
	C158.244659,137.759705 158.037643,137.965424 158.130096,137.852539 
	C158.979141,139.051666 159.739700,140.355148 161.667786,139.009766 
	C161.740494,138.704315 161.767975,138.709290 161.759140,138.700378 
z"/>
<path fill="#061126" opacity="1.000000" stroke="none" 
	d="
M372.157043,198.973541 
	C371.158661,199.299210 370.423187,199.306488 369.346802,199.162964 
	C368.859894,197.236176 367.341217,197.378906 366.191956,196.819733 
	C363.292877,195.409241 360.872467,193.476318 360.992249,189.384460 
	C361.507904,188.985733 362.018280,188.968369 362.909637,188.910629 
	C363.834045,189.292404 364.377472,189.714554 365.045410,190.367401 
	C366.286560,192.818146 368.222931,193.140503 370.754089,192.787201 
	C371.497864,192.644165 371.905151,192.578827 372.607483,192.619385 
	C375.378906,193.411087 377.582184,192.824570 379.636230,190.972076 
	C379.690063,190.652420 379.706146,190.648682 379.708282,190.641693 
	C382.797974,191.907761 383.991486,188.771622 386.132233,187.805008 
	C387.011322,192.276337 382.935425,197.537933 378.290527,198.016617 
	C376.332489,198.218399 374.280548,197.558807 372.157043,198.973541 
z"/>
<path fill="#061127" opacity="1.000000" stroke="none" 
	d="
M141.032394,199.548065 
	C140.058701,200.084335 139.137695,200.264114 137.869629,200.380798 
	C131.760818,199.878952 125.999084,199.440201 120.237343,199.001389 
	C119.108200,198.915390 117.682861,199.173203 117.344566,197.704056 
	C116.975235,196.100128 118.261810,195.405518 119.473221,194.766571 
	C121.372353,193.764847 123.263107,193.943192 125.255905,194.527313 
	C127.335976,195.137039 129.479919,195.365768 131.826019,194.080353 
	C132.823334,193.800415 133.553604,193.826736 134.631683,193.976257 
	C136.286697,195.318420 137.876526,194.970154 139.744720,194.840485 
	C140.511871,194.755463 140.950623,194.729492 141.691071,194.849213 
	C141.690216,196.393799 141.387665,197.792694 141.032394,199.548065 
z"/>
<path fill="#061127" opacity="1.000000" stroke="none" 
	d="
M359.752075,132.696350 
	C362.253448,133.611603 364.773285,130.858459 367.797302,132.887192 
	C361.173218,137.722031 355.383514,143.177856 348.407654,146.995956 
	C345.226685,148.737000 344.562286,146.082184 344.003479,143.364502 
	C347.023010,143.169632 349.425995,142.289841 350.705322,139.023514 
	C350.661194,138.663147 350.684631,138.663223 350.685791,138.651917 
	C351.861542,138.654068 352.733490,138.024643 353.609253,136.967331 
	C353.662506,136.644531 353.928589,136.983154 353.804688,136.807251 
	C354.858734,136.674255 355.717010,136.027206 356.627716,134.992264 
	C356.714417,134.678299 357.008636,134.977921 356.858887,134.831696 
	C357.844513,134.622986 358.730896,134.043625 359.640472,133.009171 
	C359.734070,132.700165 359.758698,132.704254 359.752075,132.696350 
z"/>
<path fill="#071127" opacity="1.000000" stroke="none" 
	d="
M189.943939,109.394531 
	C190.417343,108.908882 190.818939,108.749481 191.545807,108.581268 
	C196.174927,108.884872 199.342194,106.405273 202.714935,103.877838 
	C203.590851,102.736237 204.371597,101.913460 205.403137,100.957001 
	C208.262405,101.930603 208.020889,103.697639 206.652573,105.581154 
	C202.567551,111.204216 196.222366,112.808197 190.085327,114.736092 
	C188.966827,115.087463 188.276886,114.309464 187.737289,113.382805 
	C186.277634,110.876099 189.611282,111.200607 189.943939,109.394531 
z"/>
<path fill="#061127" opacity="1.000000" stroke="none" 
	d="
M355.295654,160.663239 
	C359.012970,159.258530 362.395752,157.919449 365.769928,156.558960 
	C367.311279,155.937485 368.807098,155.818497 369.577820,157.570129 
	C370.462463,159.580780 368.713287,160.186584 367.410370,160.775467 
	C364.246155,162.205612 361.069275,163.633774 357.806091,164.809021 
	C355.883789,165.501343 354.208405,164.852524 353.411713,162.728806 
	C352.840973,161.207458 353.295990,160.507507 355.295654,160.663239 
z"/>
<path fill="#071127" opacity="1.000000" stroke="none" 
	d="
M172.127151,112.700302 
	C173.273621,113.618309 174.089035,114.436775 174.990692,115.532593 
	C174.403915,117.086029 176.376495,118.958496 174.491089,119.769073 
	C172.687286,120.544586 171.295074,119.110619 170.351501,117.782608 
	C168.335083,114.944611 165.952164,112.467186 163.524658,110.001038 
	C162.438934,108.898056 160.392807,107.819214 161.466385,105.996460 
	C162.388168,104.431442 164.167526,106.366234 165.947876,105.893707 
	C166.645203,105.885086 166.874634,106.044998 167.062775,106.542908 
	C167.931641,109.296997 169.854004,110.956787 172.127151,112.700302 
z"/>
<path fill="#071127" opacity="1.000000" stroke="none" 
	d="
M169.888123,129.097687 
	C169.881134,128.422653 170.005432,128.172775 170.458557,127.914467 
	C175.543259,127.100273 176.677124,122.189789 179.863297,119.213676 
	C179.859085,118.861061 179.877289,118.909218 179.861755,118.891235 
	C181.288544,118.310127 182.624115,117.594933 183.585571,115.956635 
	C183.631775,115.632332 183.650436,115.621330 183.656219,115.612091 
	C185.379089,116.421951 188.403290,117.191803 185.716034,119.560051 
	C180.078094,124.528694 173.829208,128.802780 169.128799,135.338928 
	C167.786789,132.525696 169.941376,131.225983 169.888123,129.097687 
z"/>
<path fill="#061126" opacity="1.000000" stroke="none" 
	d="
M225.378525,97.054779 
	C225.013916,95.699257 225.013916,94.389977 225.013916,92.124817 
	C229.775681,96.481552 234.504990,94.219330 239.095779,93.688965 
	C240.685715,93.505287 242.444016,93.016159 242.927322,94.737022 
	C243.553726,96.967430 241.249771,96.728172 239.998215,96.980850 
	C235.269012,97.935631 230.518677,100.881073 225.378525,97.054779 
z"/>
<path fill="#061127" opacity="1.000000" stroke="none" 
	d="
M344.304688,131.349091 
	C342.803986,130.798447 339.784088,130.959763 342.392334,128.163834 
	C345.684174,124.635078 349.172089,121.285362 352.653809,117.939941 
	C353.654816,116.978096 355.190613,116.399780 356.225067,117.585472 
	C357.272308,118.785805 355.785309,119.637253 355.053894,120.423637 
	C352.479492,123.191605 349.846954,125.905525 347.289795,128.986908 
	C347.343170,129.333832 347.320160,129.332474 347.317322,129.343018 
	C346.144775,129.345291 345.272461,129.971512 344.385376,131.018097 
	C344.323853,131.338669 344.304291,131.338989 344.304688,131.349091 
z"/>
<path fill="#071127" opacity="1.000000" stroke="none" 
	d="
M322.785156,115.973663 
	C323.726837,116.385452 324.310181,116.827019 324.988525,117.532043 
	C325.103516,119.184074 325.618988,119.923431 327.194550,119.758636 
	C328.090851,119.664886 329.132202,117.518051 329.881500,119.682564 
	C330.383972,121.134117 329.868286,122.590065 328.699432,123.746277 
	C327.529327,124.903755 326.480713,124.837471 325.266815,123.773621 
	C322.696045,121.520584 320.059570,119.342529 317.490234,117.088890 
	C319.735931,114.460800 321.121490,116.434158 322.785156,115.973663 
z"/>
<path fill="#071229" opacity="1.000000" stroke="none" 
	d="
M224.995483,96.993286 
	C224.512848,100.425690 215.736877,104.601311 213.040604,102.621834 
	C212.588318,102.289787 212.253113,101.546982 212.206375,100.966408 
	C212.110886,99.779976 212.923233,99.267014 214.019669,99.052612 
	C217.412659,98.389168 220.798401,97.688744 224.600433,97.005615 
	C225.013916,97.008545 224.999512,97.000481 224.995483,96.993286 
z"/>
<path fill="#071127" opacity="1.000000" stroke="none" 
	d="
M144.272949,153.782471 
	C143.550964,154.219971 143.090164,154.329575 142.312424,154.256454 
	C141.375748,151.124634 138.303864,151.701630 136.573364,150.328979 
	C134.899200,149.001038 132.390518,149.240616 130.621872,147.306931 
	C133.020203,145.037659 135.437225,145.903625 137.835052,146.931152 
	C139.953796,147.839081 141.898026,149.294891 144.807617,148.834793 
	C145.211807,148.762848 145.173615,148.771439 145.193848,148.769562 
	C146.010406,150.478378 145.662155,152.023041 144.272949,153.782471 
z"/>
<path fill="#061127" opacity="1.000000" stroke="none" 
	d="
M374.941254,159.329865 
	C375.756378,158.595825 376.507812,158.203308 377.578003,157.755157 
	C378.147736,158.118576 378.382172,158.548691 378.652893,158.954620 
	C379.441711,160.137466 381.949951,159.653732 381.694275,161.646759 
	C381.449249,163.556244 379.421783,163.882614 377.965546,164.417236 
	C375.820221,165.204880 373.064453,166.046509 371.736786,163.660385 
	C370.213715,160.923080 374.485565,161.582993 374.941254,159.329865 
z"/>
<path fill="#071127" opacity="1.000000" stroke="none" 
	d="
M184.142151,99.810608 
	C184.525940,99.718338 184.823959,99.599930 184.921875,99.726837 
	C184.799835,101.563301 185.588303,104.356018 183.283707,104.405090 
	C180.504227,104.464279 179.004440,101.909294 177.900421,99.116402 
	C180.228806,98.284210 181.829651,100.487679 184.142151,99.810608 
z"/>
<path fill="#061127" opacity="1.000000" stroke="none" 
	d="
M336.623840,134.151581 
	C334.589844,132.252106 332.800232,130.573990 330.991302,128.916885 
	C330.331573,128.312500 329.867065,127.596008 330.491241,126.819344 
	C331.220978,125.911346 331.986023,126.594688 332.571625,127.114357 
	C334.528015,128.850510 336.479797,130.596542 338.343231,132.430374 
	C339.086853,133.162170 339.267242,134.221359 338.484680,135.049789 
	C338.340637,135.202271 337.421753,134.622833 336.623840,134.151581 
z"/>
<path fill="#071229" opacity="1.000000" stroke="none" 
	d="
M234.623779,74.735916 
	C235.484253,73.399734 235.547562,71.853142 237.572601,71.455406 
	C236.849075,75.338959 234.931137,78.338074 232.443130,82.140320 
	C231.955872,78.744186 233.730698,77.051971 234.623779,74.735916 
z"/>
<path fill="#404D65" opacity="1.000000" stroke="none" 
	d="
M197.012543,90.545929 
	C194.526199,91.724220 192.269974,93.622314 189.004654,92.855461 
	C190.836380,90.001564 193.634842,89.626511 196.620712,88.952164 
	C196.997681,89.412277 196.995361,89.824638 197.012543,90.545929 
z"/>
<path fill="#6A7486" opacity="1.000000" stroke="none" 
	d="
M128.801605,205.029236 
	C130.433334,207.077713 130.223557,209.154434 129.124969,212.121429 
	C127.743263,209.640015 128.045059,207.671448 127.888214,205.422592 
	C128.161469,205.029495 128.344589,205.045181 128.801605,205.029236 
z"/>
<path fill="#404D65" opacity="1.000000" stroke="none" 
	d="
M136.524689,210.024261 
	C135.797653,207.582413 135.423370,205.216873 134.956024,202.463760 
	C135.265488,202.023682 135.668045,201.971161 136.375061,201.923889 
	C137.021240,204.024414 137.362961,206.119675 137.706253,208.606476 
	C137.585693,209.481995 137.308899,209.849503 136.524689,210.024261 
z"/>
<path fill="#0C1833" opacity="1.000000" stroke="none" 
	d="
M209.235336,89.297890 
	C207.507309,87.438522 207.935562,85.476547 207.680038,83.631668 
	C209.461441,84.764580 209.118774,86.768089 209.953659,88.636459 
	C209.831055,89.197319 209.661484,89.394630 209.235336,89.297890 
z"/>
<path fill="#061127" opacity="1.000000" stroke="none" 
	d="
M342.423645,137.632874 
	C342.081787,138.320374 342.061340,139.304382 341.011353,139.416260 
	C340.903107,139.427811 340.685486,139.238678 340.665344,139.118103 
	C340.525665,138.283218 341.173279,138.060593 342.051819,137.660583 
	C342.353668,137.529434 342.377991,137.620758 342.423645,137.632874 
z"/>
<path fill="#061127" opacity="1.000000" stroke="none" 
	d="
M343.976685,143.022339 
	C343.478943,142.732681 343.002319,142.422272 342.525696,142.111862 
	C342.696106,141.913544 342.866486,141.715225 343.036865,141.516907 
	C343.337219,141.819641 343.637573,142.122391 343.988525,142.692169 
	C344.039124,142.959198 343.997803,143.001602 343.976685,143.022339 
z"/>
<path fill="#0C1833" opacity="1.000000" stroke="none" 
	d="
M207.537170,80.044449 
	C207.177277,80.701569 206.815796,80.708527 206.496964,80.238640 
	C206.430206,80.140236 206.433014,79.913315 206.502655,79.817497 
	C206.835983,79.358963 207.197098,79.376602 207.537170,80.044449 
z"/>
<path fill="#071229" opacity="1.000000" stroke="none" 
	d="
M209.004715,89.237396 
	C209.149094,89.002686 209.319397,89.001549 209.745148,89.000214 
	C209.835266,89.398003 209.669922,89.795998 209.504578,90.193985 
	C209.346603,89.952980 209.188629,89.711975 209.004715,89.237396 
z"/>
<path fill="#071229" opacity="1.000000" stroke="none" 
	d="
M211.713013,96.988785 
	C211.597885,97.140335 211.482178,97.158363 211.366486,97.176392 
	C211.481812,97.069344 211.597122,96.962296 211.713013,96.988785 
z"/>
<path fill="#071229" opacity="1.000000" stroke="none" 
	d="
M210.281326,93.010338 
	C210.398849,92.855255 210.517334,92.836823 210.635834,92.818390 
	C210.517990,92.927917 210.400146,93.037453 210.281326,93.010338 
z"/>
<path fill="#061126" opacity="1.000000" stroke="none" 
	d="
M361.001709,188.998779 
	C361.003418,188.997543 360.592743,188.759750 360.592743,188.759750 
	C360.592743,188.759750 360.901306,188.772125 360.949402,188.887604 
	C360.997528,189.003082 361.000000,189.000000 361.001709,188.998779 
z"/>
<path fill="#1B2844" opacity="1.000000" stroke="none" 
	d="
M273.712738,265.688721 
	C266.941193,270.900146 260.842163,276.322723 255.716873,282.729919 
	C253.886993,285.017487 252.731415,285.686646 250.467667,282.998566 
	C233.175995,262.465515 210.993912,250.160217 184.887970,244.703064 
	C181.968018,244.092682 180.794403,243.051300 180.806335,239.861252 
	C180.925903,207.870987 180.923019,175.879944 180.808762,143.889618 
	C180.797516,140.746460 181.935059,139.637177 184.838257,138.898361 
	C206.612030,133.357361 228.352051,127.682213 250.071411,121.931168 
	C252.291656,121.343277 254.258118,121.491074 256.382477,122.048180 
	C277.794098,127.663338 299.196777,133.315460 320.656891,138.739883 
	C323.971375,139.577667 325.224854,140.765961 325.208038,144.354004 
	C325.059570,176.010803 325.055908,207.668884 325.211243,239.325607 
	C325.228973,242.932388 324.060486,244.129120 320.660461,244.817215 
	C303.614960,248.266983 288.006134,255.095978 273.712738,265.688721 
z"/>
<path fill="#F1DBB3" opacity="1.000000" stroke="none" 
	d="
M188.405579,133.030914 
	C188.675186,129.633575 191.826630,128.490555 194.046341,126.723831 
	C211.346893,112.953873 231.378601,106.125031 253.269775,106.262657 
	C277.179504,106.412979 298.561859,114.490852 316.645966,130.513763 
	C317.098999,130.915131 317.372070,131.519592 317.751343,132.061172 
	C316.254425,133.688614 314.866241,132.688934 313.525696,132.344498 
	C294.685822,127.503876 275.837769,122.694504 257.021820,117.762444 
	C254.351685,117.062546 251.924179,116.993584 249.219147,117.694664 
	C229.111313,122.906151 208.964813,127.968468 188.405579,133.030914 
z"/>
<path fill="#F1DBB3" opacity="1.000000" stroke="none" 
	d="
M176.087509,186.000000 
	C176.087631,206.380737 176.087631,226.261475 176.087631,246.644409 
	C154.959045,229.466339 154.937256,164.931030 176.087387,147.306778 
	C176.087387,160.396057 176.087387,172.948029 176.087509,186.000000 
z"/>
<path fill="#F1DBB3" opacity="1.000000" stroke="none" 
	d="
M329.912476,183.000000 
	C329.912384,170.951080 329.912384,159.402161 329.912384,147.301529 
	C351.045074,165.111313 351.006927,229.599960 329.912598,246.624100 
	C329.912598,225.257614 329.912598,204.378815 329.912476,183.000000 
z"/>
<path fill="#F1DCB4" opacity="1.000000" stroke="none" 
	d="
M207.719971,276.334106 
	C197.045380,270.293152 187.674438,263.238495 180.238998,253.830215 
	C179.519669,252.920074 178.686783,252.071823 178.128647,251.071014 
	C177.687561,250.280045 176.873886,249.205612 177.836075,248.416779 
	C178.341370,248.002518 179.429291,248.085114 180.196533,248.236008 
	C193.304642,250.814285 205.955704,254.799301 217.610016,261.415192 
	C228.954773,267.855377 238.910583,276.050415 248.105194,287.145966 
	C233.157333,286.792633 220.307343,282.830597 207.719971,276.334106 
z"/>
<path fill="#F1DCB4" opacity="1.000000" stroke="none" 
	d="
M282.287903,265.243500 
	C295.662750,256.358154 310.192505,251.413269 325.445190,248.317169 
	C326.417908,248.119736 327.771545,247.612350 328.251129,248.469315 
	C329.092072,249.971954 327.889435,251.293045 326.975342,252.428894 
	C317.202789,264.572479 305.146973,273.751556 290.824249,279.879852 
	C280.684509,284.218323 270.142303,286.892609 257.935822,287.198242 
	C265.304504,278.223572 273.078644,271.222321 282.287903,265.243500 
z"/>
<path fill="#F1DBB3" opacity="1.000000" stroke="none" 
	d="
M188.006989,133.008972 
	C187.903732,132.967667 187.925125,133.778580 187.846527,133.024414 
	C187.980682,132.984207 187.999359,132.999741 188.006989,133.008972 
z"/>
<path fill="#747C8D" opacity="1.000000" stroke="none" 
	d="
M279.693665,85.784210 
	C278.797302,85.534233 278.906281,85.046135 279.416260,84.547562 
	C279.588531,84.887077 279.760803,85.226593 279.693665,85.784210 
z"/>
<path fill="#192742" opacity="1.000000" stroke="none" 
	d="
M340.972473,112.978004 
	C340.994171,113.370926 340.853607,113.602760 340.713074,113.834595 
	C340.548004,113.552917 340.382904,113.271240 340.343384,112.751053 
	C340.468903,112.512550 340.810211,112.816917 340.972473,112.978004 
z"/>
<path fill="#0C1833" opacity="1.000000" stroke="none" 
	d="
M129.296112,183.622253 
	C128.804306,181.630386 128.700348,179.712357 130.627533,179.134338 
	C132.866821,178.462708 135.195877,179.084976 137.161713,180.322647 
	C138.260696,181.014542 137.968567,182.407410 137.750793,183.540833 
	C137.428696,185.217224 136.106125,184.856155 134.995911,184.720932 
	C133.192169,184.501221 131.399551,184.190186 129.296112,183.622253 
z"/>
<path fill="#192742" opacity="1.000000" stroke="none" 
	d="
M139.768951,194.563019 
	C138.438507,196.414062 136.802399,196.542343 135.071960,194.442856 
	C136.474579,194.181183 137.969681,194.262894 139.768951,194.563019 
z"/>
<path fill="#0C1833" opacity="1.000000" stroke="none" 
	d="
M375.290710,181.977417 
	C372.692017,183.862442 370.103638,184.298126 368.363770,181.595062 
	C367.005920,179.485397 367.957520,177.546860 370.611328,176.378693 
	C373.121399,177.507095 377.119385,177.127457 375.290710,181.977417 
z"/>
<path fill="#192742" opacity="1.000000" stroke="none" 
	d="
M379.333008,190.703430 
	C378.908081,194.666534 376.236298,194.228226 373.136871,193.029877 
	C374.927002,192.068359 376.951477,191.411407 379.333008,190.703430 
z"/>
<path fill="#202D46" opacity="1.000000" stroke="none" 
	d="
M375.511536,182.221008 
	C375.710724,179.208084 373.524200,178.049072 371.083893,176.658463 
	C376.501312,175.910614 377.683380,177.298401 375.511536,182.221008 
z"/>
<path fill="#192742" opacity="1.000000" stroke="none" 
	d="
M370.803284,192.510300 
	C368.480652,195.024780 366.641754,193.965591 365.163727,190.976013 
	C366.951935,191.169083 368.733978,191.740082 370.803284,192.510300 
z"/>
<path fill="#202D46" opacity="1.000000" stroke="none" 
	d="
M306.202820,96.836197 
	C305.688446,96.147324 305.323700,95.734337 305.253876,95.276390 
	C304.863312,92.714317 305.868225,90.737099 308.126953,89.561783 
	C309.807495,88.687332 311.428619,89.284348 312.513855,90.693474 
	C313.780487,92.338158 313.319580,94.128609 312.272980,95.736656 
	C310.800110,97.999664 308.929901,98.833466 306.202820,96.836197 
z"/>
<path fill="#192742" opacity="1.000000" stroke="none" 
	d="
M308.783905,105.620911 
	C305.452637,108.035393 303.163269,106.132820 301.171814,102.951736 
	C303.624908,103.515770 306.070526,104.452354 308.783905,105.620911 
z"/>
<path fill="#192742" opacity="1.000000" stroke="none" 
	d="
M317.512939,103.724960 
	C317.517456,106.465714 315.945465,107.252991 313.147583,106.104332 
	C314.349060,105.152039 315.764374,104.479172 317.512939,103.724960 
z"/>
<path fill="#36435C" opacity="1.000000" stroke="none" 
	d="
M155.675323,120.650299 
	C157.137314,119.242325 158.348679,119.247559 159.319183,120.533173 
	C160.215042,121.719887 159.280182,122.675888 158.601639,123.587540 
	C157.809830,124.651390 156.941299,125.008591 155.694138,124.127426 
	C154.261337,123.115089 154.239746,122.121674 155.675323,120.650299 
z"/>
<path fill="#192742" opacity="1.000000" stroke="none" 
	d="
M154.145615,134.381287 
	C151.529068,135.298660 149.861023,134.166672 149.215118,131.087128 
	C150.834000,131.838196 152.413010,132.966125 154.145615,134.381287 
z"/>
<path fill="#192742" opacity="1.000000" stroke="none" 
	d="
M161.419800,138.738861 
	C161.850891,139.792221 161.663208,140.785141 160.326096,140.743439 
	C158.974365,140.701294 158.340958,139.754562 158.199524,138.105988 
	C159.321060,137.695618 159.846130,139.247253 161.419800,138.738861 
z"/>
<path fill="#192742" opacity="1.000000" stroke="none" 
	d="
M158.113922,137.464767 
	C156.261353,138.093033 154.591187,137.883362 154.258011,135.052475 
	C155.530045,135.503723 156.756622,136.336777 158.113922,137.464767 
z"/>
<path fill="#404D65" opacity="1.000000" stroke="none" 
	d="
M375.699066,214.090012 
	C372.295044,213.723572 372.771027,211.634918 373.470886,209.782440 
	C373.981384,208.431259 375.588379,208.616638 376.419525,209.214569 
	C378.657867,210.824799 377.412201,212.479721 375.699066,214.090012 
z"/>
<path fill="#5B657A" opacity="1.000000" stroke="none" 
	d="
M136.147491,210.322296 
	C136.554916,209.710297 136.937912,209.472626 137.514374,209.116455 
	C137.854492,210.000031 138.810059,211.210052 137.304092,211.848480 
	C136.583633,212.153900 136.283646,211.336166 136.147491,210.322296 
z"/>
<path fill="#192742" opacity="1.000000" stroke="none" 
	d="
M149.526031,160.762299 
	C149.400513,164.061920 147.536804,165.253128 144.071671,163.935928 
	C145.652542,162.706985 147.425491,161.783066 149.526031,160.762299 
z"/>
<path fill="#192742" opacity="1.000000" stroke="none" 
	d="
M144.360809,154.148132 
	C144.361450,152.588043 144.711136,151.065735 145.137451,149.155548 
	C147.846085,150.834320 146.903534,152.568329 144.360809,154.148132 
z"/>
<path fill="#192742" opacity="1.000000" stroke="none" 
	d="
M202.464233,103.664688 
	C200.820679,108.335991 196.642456,108.982193 192.046143,108.871101 
	C195.286819,106.971756 198.702576,105.371063 202.464233,103.664688 
z"/>
<path fill="#192742" opacity="1.000000" stroke="none" 
	d="
M172.330658,112.481766 
	C169.090912,112.646599 167.498276,110.672012 167.077637,107.141083 
	C168.806961,108.558197 170.505051,110.360939 172.330658,112.481766 
z"/>
<path fill="#192742" opacity="1.000000" stroke="none" 
	d="
M183.326263,115.722641 
	C184.068085,118.047485 182.727112,118.849693 180.231720,118.913658 
	C180.904404,117.853149 181.962585,116.833046 183.326263,115.722641 
z"/>
<path fill="#192742" opacity="1.000000" stroke="none" 
	d="
M359.427948,132.757629 
	C359.889954,134.380920 359.008179,134.968338 357.085754,134.770767 
	C357.513336,134.061996 358.317596,133.438553 359.427948,132.757629 
z"/>
<path fill="#192742" opacity="1.000000" stroke="none" 
	d="
M344.624634,131.270691 
	C344.096039,129.615570 344.988983,129.041336 346.936005,129.256622 
	C346.518127,129.969955 345.721771,130.586319 344.624634,131.270691 
z"/>
<path fill="#192742" opacity="1.000000" stroke="none" 
	d="
M356.405396,134.719559 
	C356.900330,136.396515 356.005768,136.970444 354.058502,136.730438 
	C354.485992,136.007843 355.291199,135.384338 356.405396,134.719559 
z"/>
<path fill="#192742" opacity="1.000000" stroke="none" 
	d="
M353.361816,136.709015 
	C353.908051,138.371521 353.031097,138.954590 351.067383,138.729218 
	C351.478394,138.018250 352.269775,137.395859 353.361816,136.709015 
z"/>
<path fill="#EAEBEC" opacity="1.000000" stroke="none" 
	d="
M263.241150,209.302155 
	C262.819214,202.905289 266.270233,199.558044 271.497925,196.651306 
	C286.415222,188.356857 302.037842,181.959702 318.410400,177.241364 
	C321.593628,176.324020 321.971985,177.461044 321.959473,180.225479 
	C321.873596,199.207581 321.811646,218.191330 322.011505,237.171707 
	C322.046448,240.489594 320.698242,241.348541 317.925995,241.976868 
	C297.928558,246.509277 279.975464,255.185349 264.584137,268.855316 
	C261.354889,271.723389 258.295532,274.809174 255.391464,278.006714 
	C253.736572,279.828827 252.784836,280.453888 250.804901,278.238129 
	C233.831940,259.243591 212.583893,247.542908 187.876114,241.952423 
	C184.936737,241.287338 183.979965,240.054886 184.006012,236.973328 
	C184.165054,218.158707 184.135361,199.341782 184.033356,180.526382 
	C184.017471,177.598267 184.274979,176.198471 187.793533,177.235733 
	C204.455170,182.147675 220.415085,188.620987 235.527695,197.262802 
	C240.076355,199.863846 243.137512,202.827164 242.956406,208.720673 
	C240.341309,210.792679 238.696304,208.583633 236.920258,207.290619 
	C223.951324,197.848846 209.493591,191.943680 193.894028,188.702621 
	C209.466705,191.952164 223.922424,197.826172 236.845627,207.286575 
	C238.593994,208.566467 240.287659,209.922821 242.866135,210.347534 
	C245.287689,227.095016 247.379974,243.727142 249.455734,260.361328 
	C249.719299,262.473358 250.253403,264.466827 252.796555,264.570984 
	C255.641190,264.687500 256.267426,262.587952 256.563416,260.269836 
	C258.645081,243.966721 260.748108,227.666306 262.822021,210.920624 
	C269.049713,208.738708 273.274811,203.626877 278.948120,200.849487 
	C289.566498,195.651215 300.216583,190.682434 309.328400,189.290558 
	C296.474213,191.935196 282.141663,197.839828 269.248627,207.163651 
	C267.561798,208.383469 266.086609,210.302826 263.241150,209.302155 
z"/>
<path fill="#D2A554" opacity="1.000000" stroke="none" 
	d="
M252.413391,256.134033 
	C249.555038,235.404953 246.934494,214.933853 244.310745,194.463150 
	C243.437317,187.648590 243.433578,187.649063 250.323257,187.642303 
	C262.208923,187.630646 262.372681,187.650238 260.948792,199.548813 
	C258.733887,218.056671 256.270599,236.534805 253.867859,255.450562 
	C253.539490,256.291840 253.143127,256.451935 252.413391,256.134033 
z"/>
<path fill="#E6E7E8" opacity="1.000000" stroke="none" 
	d="
M263.612366,138.086578 
	C264.701080,136.689651 265.153503,137.809799 265.479126,138.375839 
	C268.676086,143.933029 269.642731,149.779388 268.209473,156.133698 
	C267.386810,159.780991 265.032135,159.749130 262.231720,159.663208 
	C258.438843,159.546799 260.319366,156.934311 260.341614,155.338760 
	C260.422333,149.555344 257.740356,145.234436 253.345779,141.214294 
	C251.971893,147.158646 248.223846,151.926636 247.987793,157.877457 
	C247.921127,159.557877 246.781158,159.770172 245.592178,159.605591 
	C243.451065,159.309158 240.704437,160.862564 239.333069,158.022156 
	C236.928345,153.041412 236.068619,147.874542 238.548080,142.656555 
	C238.844238,142.033325 239.471298,137.482605 241.159821,142.251923 
	C241.554398,143.366409 242.109390,142.130722 242.315445,141.755600 
	C245.394562,136.150345 251.783676,132.686905 252.485413,125.260361 
	C257.815552,127.934517 260.277679,132.251556 261.945618,137.621704 
	C262.479126,138.294083 262.743195,139.324249 263.612366,138.086578 
z"/>
<path fill="#D4A654" opacity="1.000000" stroke="none" 
	d="
M273.856445,169.763611 
	C271.853302,174.045715 268.897247,175.458511 264.475128,175.217575 
	C257.668274,174.846710 250.826309,175.120178 243.999237,175.120056 
	C234.438751,175.119873 231.614151,172.744156 229.315430,162.475861 
	C245.055740,162.475861 260.719147,162.475861 276.491577,162.475861 
	C276.549774,165.127426 274.959167,167.164658 273.856445,169.763611 
z"/>
<path fill="#D3A654" opacity="1.000000" stroke="none" 
	d="
M260.846436,177.112274 
	C263.480896,177.196701 265.690918,177.019135 267.781189,177.438416 
	C269.915161,177.866455 271.251526,179.399246 271.007416,181.802200 
	C270.788147,183.960495 269.411377,185.206192 267.376648,185.228668 
	C257.887054,185.333435 248.395340,185.362045 238.905807,185.270264 
	C236.417526,185.246201 234.800644,183.776306 235.004913,181.099014 
	C235.227814,178.177429 237.352020,177.195847 239.884995,177.161758 
	C246.712128,177.069885 253.541138,177.119034 260.846436,177.112274 
z"/>
<path fill="#3A475F" opacity="1.000000" stroke="none" 
	d="
M262.852417,209.329422 
	C264.647064,210.528137 265.251526,208.584900 266.109802,207.936462 
	C280.319885,197.200989 296.116791,190.187424 313.757843,187.477631 
	C315.245392,187.249130 317.022278,186.263885 318.149323,188.293747 
	C317.475281,189.996826 315.945068,189.582825 314.726807,189.756073 
	C297.884155,192.151352 282.863037,198.912933 269.105103,208.719543 
	C267.425446,209.916809 265.959717,212.013153 263.171875,210.237823 
	C262.700348,210.169785 262.688202,209.859940 262.852417,209.329422 
z"/>
<path fill="#3A475F" opacity="1.000000" stroke="none" 
	d="
M243.242340,210.233521 
	C241.108231,210.369400 239.266693,210.682053 237.140198,209.086258 
	C223.382141,198.761673 207.993225,192.100723 190.859390,189.727066 
	C189.749344,189.573288 188.478409,189.754807 187.807861,188.363876 
	C189.047043,186.134125 190.977631,187.301453 192.596848,187.560394 
	C210.491867,190.422012 226.561081,197.464676 240.768311,208.736343 
	C241.271515,209.135574 241.895386,209.382706 242.761169,209.406403 
	C243.221344,209.387726 243.296280,209.685287 243.242340,210.233521 
z"/>
<path fill="#C4C7CD" opacity="1.000000" stroke="none" 
	d="
M226.850555,170.052994 
	C222.345062,171.365479 218.189789,172.512665 214.027817,173.635101 
	C213.076965,173.891510 211.874863,174.264404 211.449768,173.058273 
	C210.979919,171.725204 212.347626,171.422104 213.195114,171.195328 
	C217.364105,170.079758 221.549576,169.014053 225.763062,168.084091 
	C226.923264,167.828033 228.375107,167.962402 226.850555,170.052994 
z"/>
<path fill="#C4C7CD" opacity="1.000000" stroke="none" 
	d="
M278.387177,168.838959 
	C283.672424,167.995499 288.379547,170.305786 293.321014,171.400696 
	C294.023254,171.556290 295.024933,172.054932 294.541077,173.131485 
	C294.130646,174.044739 293.152039,174.023651 292.380981,173.739868 
	C287.764557,172.041031 282.628754,171.956863 278.387177,168.838959 
z"/>
<path fill="#C4C7CD" opacity="1.000000" stroke="none" 
	d="
M285.199036,155.088409 
	C283.080719,155.261368 281.442322,156.805374 278.197357,154.516174 
	C284.273163,152.883820 289.334351,151.497894 294.416412,150.193237 
	C295.021729,150.037811 295.763977,150.329346 295.857300,151.182251 
	C295.946350,151.996078 295.334137,152.398102 294.721252,152.570084 
	C291.689056,153.420914 288.637390,154.202515 285.199036,155.088409 
z"/>
<path fill="#CBCDD3" opacity="1.000000" stroke="none" 
	d="
M275.806030,176.177383 
	C274.654724,173.296494 276.417572,173.979340 277.524323,174.558563 
	C281.337982,176.554489 285.064880,178.716217 288.825562,180.813446 
	C289.585510,181.237244 290.375641,181.817841 289.868439,182.726944 
	C289.181427,183.958282 288.122223,183.243561 287.310333,182.790741 
	C283.551788,180.694489 279.826721,178.538223 275.806030,176.177383 
z"/>
<path fill="#C8CAD0" opacity="1.000000" stroke="none" 
	d="
M229.820419,174.129532 
	C231.085541,174.806381 231.097397,175.613602 230.225922,176.129440 
	C226.232254,178.493332 222.198013,180.789734 218.149338,183.058655 
	C217.446762,183.452393 216.499237,183.757278 216.083435,182.658020 
	C215.705521,181.658966 216.492752,181.178299 217.238098,180.770187 
	C221.310837,178.540222 225.385681,176.314133 229.820419,174.129532 
z"/>
<path fill="#C8CAD0" opacity="1.000000" stroke="none" 
	d="
M226.365204,155.183746 
	C221.096283,156.059814 216.415466,153.662094 211.470978,152.628006 
	C210.727875,152.472580 209.823853,151.995102 210.235199,150.897171 
	C210.509506,150.164978 211.268570,150.014786 211.893066,150.217606 
	C216.714584,151.783417 221.924133,152.130707 226.365204,155.183746 
z"/>
<path fill="#C8CAD0" opacity="1.000000" stroke="none" 
	d="
M284.304047,143.302811 
	C287.165131,142.599472 289.424896,138.207321 291.571503,140.912308 
	C292.625977,142.241104 287.992401,143.897385 285.813538,145.113861 
	C283.110657,146.622894 280.622650,148.926422 276.501587,149.230301 
	C278.423676,145.520187 281.655090,145.119080 284.304047,143.302811 
z"/>
<path fill="#C8CAD0" opacity="1.000000" stroke="none" 
	d="
M226.936157,146.161438 
	C228.041031,146.908615 229.299454,147.307449 228.805664,148.532379 
	C228.446960,149.422150 227.415543,149.260452 226.649689,148.836456 
	C222.878769,146.748795 219.116928,144.644348 215.370773,142.512619 
	C214.672668,142.115372 213.709824,141.591965 214.121857,140.653931 
	C214.678406,139.386902 215.763107,139.932983 216.617996,140.401245 
	C219.962540,142.233215 223.283615,144.108047 226.936157,146.161438 
z"/>
<path fill="#D5D7DB" opacity="1.000000" stroke="none" 
	d="
M232.756516,142.670227 
	C227.485153,140.266830 224.462189,135.518738 220.810211,131.385147 
	C225.804031,134.019989 230.162628,137.350266 232.756516,142.670227 
z"/>
<path fill="#DFE0E3" opacity="1.000000" stroke="none" 
	d="
M292.736877,163.319977 
	C288.194214,163.320557 284.118164,163.320557 280.042084,163.320557 
	C280.036774,162.650314 280.031494,161.980072 280.026184,161.309830 
	C285.528778,160.560699 291.089478,161.114166 296.900787,161.056183 
	C296.270874,164.036041 294.443970,163.013992 292.736877,163.319977 
z"/>
<path fill="#DFE0E3" opacity="1.000000" stroke="none" 
	d="
M221.837830,163.320312 
	C217.326752,163.320755 213.291550,163.320755 209.256332,163.320755 
	C209.260193,162.776291 209.264038,162.231812 209.267899,161.687347 
	C214.800385,161.687347 220.332886,161.687347 226.053986,161.687347 
	C225.345169,164.024460 223.575546,163.027451 221.837830,163.320312 
z"/>
<path fill="#D5D7DB" opacity="1.000000" stroke="none" 
	d="
M275.144775,142.328110 
	C273.326538,143.299438 272.127350,142.543884 273.264648,141.256012 
	C276.670715,137.399033 280.506378,133.921432 284.174347,130.295731 
	C284.693420,130.808212 285.212494,131.320694 285.731567,131.833191 
	C282.292419,135.248398 278.853271,138.663620 275.144775,142.328110 
z"/>
<path fill="#6A7486" opacity="1.000000" stroke="none" 
	d="
M263.444275,137.838745 
	C264.026703,139.111160 264.448822,140.715729 262.777008,140.981125 
	C261.823730,141.132446 262.141235,139.484802 261.974762,138.305389 
	C262.416992,137.922043 262.789490,137.873810 263.444275,137.838745 
z"/>
<path fill="#7E6B4B" opacity="1.000000" stroke="none" 
	d="
M252.114380,256.223755 
	C252.542923,255.892227 252.909027,255.908554 253.549103,255.900238 
	C253.837784,256.855133 254.487198,258.249451 252.887665,258.390015 
	C251.985260,258.469330 252.133682,257.291351 252.114380,256.223755 
z"/>
<path fill="#3A475F" opacity="1.000000" stroke="none" 
	d="
M223.873993,245.051086 
	C212.152557,239.486679 200.366943,235.359406 187.605896,234.306900 
	C188.389114,231.650757 189.885681,232.174316 191.109756,232.341080 
	C210.459824,234.977493 227.737000,242.617096 243.352676,254.176422 
	C244.363663,254.924789 246.607788,255.779938 245.203812,257.436523 
	C244.006485,258.849274 242.953140,256.821472 242.024826,256.111725 
	C236.461716,251.858353 230.471298,248.320068 223.873993,245.051086 
z"/>
<path fill="#3A475F" opacity="1.000000" stroke="none" 
	d="
M270.520264,251.454956 
	C268.068054,253.218506 265.941223,254.813873 263.748688,256.313080 
	C262.790192,256.968445 261.755127,258.952667 260.572235,257.252167 
	C259.593628,255.845322 261.537506,255.042175 262.478027,254.294037 
	C270.471161,247.935989 279.438538,243.260452 288.831818,239.381332 
	C296.990509,236.012070 305.377197,233.390854 314.204895,232.450623 
	C315.566010,232.305664 317.182434,231.444885 318.520935,234.099106 
	C301.118073,236.089218 285.495361,242.417984 270.520264,251.454956 
z"/>
<path fill="#39465E" opacity="1.000000" stroke="none" 
	d="
M233.416412,235.496857 
	C219.020432,227.012207 204.155350,220.818665 186.668808,219.172821 
	C196.194199,213.809402 238.677475,231.330383 244.296631,242.207703 
	C239.801895,241.035294 237.289337,237.458557 233.416412,235.496857 
z"/>
<path fill="#3A475F" opacity="1.000000" stroke="none" 
	d="
M290.546204,211.450027 
	C281.836578,215.350342 273.678558,219.432846 266.478058,225.206253 
	C265.670197,225.854004 264.734161,227.363510 263.576294,226.198288 
	C262.239716,224.853256 263.983917,224.156860 264.757019,223.566559 
	C279.711975,212.147766 296.441895,204.883163 315.121765,202.267670 
	C316.187042,202.118500 317.837738,201.653931 317.976593,203.260635 
	C318.114899,204.860733 316.390869,204.620163 315.348389,204.697327 
	C306.770966,205.332153 298.851898,208.378128 290.546204,211.450027 
z"/>
<path fill="#36435C" opacity="1.000000" stroke="none" 
	d="
M295.069641,222.086075 
	C302.796448,219.550018 310.136719,217.046219 318.160187,218.362839 
	C297.549194,221.682144 279.127808,229.958466 261.935852,242.926300 
	C263.784760,236.895050 275.764343,229.622864 295.069641,222.086075 
z"/>
<path fill="#3A475F" opacity="1.000000" stroke="none" 
	d="
M211.588898,207.418915 
	C222.318161,211.346802 232.064178,216.285339 240.737396,223.177582 
	C241.629929,223.886841 243.713928,224.575851 242.475784,226.084259 
	C241.268555,227.555054 240.166367,225.670547 239.225647,224.979019 
	C224.645523,214.260834 208.582901,207.137833 190.555664,204.695114 
	C189.531693,204.556381 187.794922,204.854492 188.038834,203.180054 
	C188.268433,201.603912 189.900116,202.139801 190.959839,202.281281 
	C197.894440,203.207184 204.706558,204.664154 211.588898,207.418915 
z"/>
</svg>